<svg width="60" height="54" viewBox="0 0 60 54" fill="none" xmlns="http://www.w3.org/2000/svg">
<path d="M30.0002 32.3438C32.9515 32.3438 35.344 29.9513 35.344 27C35.344 24.0487 32.9515 21.6562 30.0002 21.6562C27.049 21.6562 24.6565 24.0487 24.6565 27C24.6565 29.9513 27.049 32.3438 30.0002 32.3438Z" fill="#61DAFB"/>
<path d="M50.2971 18.1875C49.2659 17.8125 48.1877 17.4375 47.0627 17.1094C47.344 15.9844 47.5784 14.8594 47.7659 13.7812C48.7502 7.59375 47.6721 3.23437 44.6721 1.54687C43.7815 1.03125 42.7971 0.796875 41.6721 0.796875C38.3909 0.796875 34.219 3.23438 30.0002 7.3125C25.7815 3.23438 21.6096 0.796875 18.3284 0.796875C17.2034 0.796875 16.219 1.03125 15.3284 1.54687C12.3284 3.28125 11.2502 7.64062 12.2346 13.7812C12.4221 14.8594 12.6565 15.9844 12.9377 17.1094C11.8127 17.4375 10.7346 17.7656 9.70337 18.1875C3.84399 20.4375 0.656494 23.5312 0.656494 27C0.656494 30.4688 3.89087 33.5625 9.70337 35.8125C10.7346 36.1875 11.8127 36.5625 12.9377 36.8906C12.6565 38.0156 12.4221 39.1406 12.2346 40.2188C11.2502 46.4062 12.3284 50.7656 15.3284 52.4531C16.219 52.9688 17.2034 53.2031 18.3284 53.2031C21.6565 53.2031 25.8284 50.7656 30.0002 46.6875C34.219 50.7656 38.3909 53.2031 41.6721 53.2031C42.7971 53.2031 43.7815 52.9688 44.6721 52.4531C47.6721 50.7188 48.7502 46.3594 47.7659 40.2188C47.5784 39.1406 47.344 38.0156 47.0627 36.8906C48.1877 36.5625 49.2659 36.2344 50.2971 35.8125C56.1565 33.5625 59.344 30.4688 59.344 27C59.344 23.5312 56.1565 20.4375 50.2971 18.1875ZM43.3596 3.89062C45.2815 5.01562 45.9377 8.48438 45.1409 13.4062C45.0002 14.3906 44.7659 15.4219 44.4846 16.5C42.0471 15.9375 39.469 15.5625 36.7502 15.3281C35.1565 13.0781 33.5159 11.0625 31.8752 9.23438C35.344 5.8125 38.8596 3.46875 41.719 3.46875C42.3284 3.46875 42.8909 3.60937 43.3596 3.89062ZM38.1096 31.6875C37.2659 33.1875 36.2815 34.6875 35.2502 36.1875C33.5159 36.3281 31.7815 36.375 30.0002 36.375C28.1721 36.375 26.4377 36.3281 24.7502 36.1875C23.719 34.6875 22.7815 33.1875 21.9377 31.6875C21.0471 30.1406 20.2034 28.5469 19.4534 27C20.2034 25.4531 21.0471 23.8594 21.9377 22.3125C22.7815 20.8125 23.7659 19.3125 24.7971 17.8125C26.5315 17.6719 28.2659 17.625 30.0471 17.625C31.8752 17.625 33.6096 17.6719 35.2971 17.8125C36.3284 19.3125 37.2659 20.8125 38.1096 22.3125C39.0002 23.8594 39.844 25.4531 40.594 27C39.7971 28.5469 39.0002 30.0938 38.1096 31.6875ZM42.0002 30.1406C42.7034 31.7812 43.2659 33.375 43.7815 34.9688C42.1877 35.3438 40.5002 35.625 38.719 35.8594C39.2815 34.9688 39.8909 34.0312 40.4065 33.0469C40.969 32.0625 41.4846 31.0781 42.0002 30.1406ZM30.0002 42.8438C28.8752 41.625 27.7971 40.3125 26.7659 38.9531C27.844 39 28.9221 39.0469 30.0002 39.0469C31.0784 39.0469 32.1565 39 33.2346 38.9531C32.2034 40.3125 31.1252 41.625 30.0002 42.8438ZM21.2815 35.8125C19.5002 35.5781 17.8127 35.2969 16.219 34.9219C16.7346 33.375 17.2971 31.7344 18.0002 30.0938C18.5159 31.0312 19.0315 32.0156 19.594 32.9531C20.1565 33.9844 20.719 34.875 21.2815 35.8125ZM18.0002 23.8594C17.2971 22.2187 16.7346 20.625 16.219 19.0312C17.8127 18.6562 19.5002 18.375 21.2815 18.1406C20.719 19.0312 20.1096 19.9688 19.594 20.9531C19.0315 21.9375 18.5159 22.9219 18.0002 23.8594ZM30.0002 11.1562C31.1252 12.375 32.2034 13.6875 33.2346 15.0469C32.1565 15 31.0784 14.9531 30.0002 14.9531C28.9221 14.9531 27.844 15 26.7659 15.0469C27.7971 13.6875 28.8752 12.375 30.0002 11.1562ZM40.4065 21L38.719 18.1875C40.5002 18.4219 42.1877 18.7031 43.7815 19.0781C43.2659 20.625 42.7034 22.2656 42.0002 23.9063C41.4846 22.9219 40.969 21.9375 40.4065 21ZM14.8596 13.4062C14.0627 8.48438 14.719 5.01562 16.6409 3.89062C17.1096 3.60937 17.6721 3.46875 18.2815 3.46875C21.094 3.46875 24.6096 5.76562 28.1252 9.23438C26.4846 11.0156 24.844 13.0781 23.2502 15.3281C20.5315 15.5625 17.9534 15.9844 15.5159 16.5C15.2346 15.4219 15.0471 14.3906 14.8596 13.4062ZM3.28149 27C3.28149 24.7969 5.95337 22.4531 10.6409 20.7188C11.5784 20.3438 12.6096 20.0156 13.6409 19.7344C14.3909 22.0781 15.3284 24.5625 16.4534 27.0469C15.3284 29.5312 14.344 31.9688 13.6409 34.3125C7.17212 32.4375 3.28149 29.625 3.28149 27ZM16.6409 50.1094C14.719 48.9844 14.0627 45.5156 14.8596 40.5938C15.0002 39.6094 15.2346 38.5781 15.5159 37.5C17.9534 38.0625 20.5315 38.4375 23.2502 38.6719C24.844 40.9219 26.4846 42.9375 28.1252 44.7656C24.6565 48.1875 21.1409 50.5312 18.2815 50.5312C17.6721 50.5312 17.1096 50.3906 16.6409 50.1094ZM45.1409 40.5938C45.9377 45.5156 45.2815 48.9844 43.3596 50.1094C42.8909 50.3906 42.3284 50.5312 41.719 50.5312C38.9065 50.5312 35.3909 48.2344 31.8752 44.7656C33.5159 42.9844 35.1565 40.9219 36.7502 38.6719C39.469 38.4375 42.0471 38.0156 44.4846 37.5C44.7659 38.5781 44.9534 39.6094 45.1409 40.5938ZM49.3596 33.2812C48.4221 33.6562 47.3909 33.9844 46.3596 34.2656C45.6096 31.9219 44.6721 29.4375 43.5471 26.9531C44.6721 24.4688 45.6565 22.0313 46.3596 19.6875C52.8284 21.5625 56.719 24.375 56.719 27C56.719 29.2031 54.0002 31.5469 49.3596 33.2812Z" fill="#61DAFB"/>
</svg>
