<svg width="60" height="60" viewBox="0 0 60 60" fill="none" xmlns="http://www.w3.org/2000/svg">
<g clip-path="url(#clip0_3253_2984)">
<path d="M30.0018 12.001C22.0017 12.001 17.0034 15.9994 15.0018 23.9996C18.0009 20.0007 21.502 18.5011 25.5009 19.501C27.7842 20.07 29.4159 21.7257 31.2229 23.5604C34.1639 26.5449 37.5679 30 45.0018 30C53.0015 30 58.0003 26.0011 60.0018 17.9991C57.0023 22.0004 53.5017 23.4999 49.5023 22.5C47.2195 21.9305 45.5896 20.2754 43.7803 18.4407C40.8412 15.4561 37.4381 12.001 30.0018 12.001ZM15.0018 30C7.00214 30 2.00339 33.9989 0.00183105 42.001C3.00089 37.9997 6.50152 36.5002 10.5009 37.5C12.7842 38.0696 14.4159 39.7247 16.2229 41.5594C19.1639 44.5439 22.5679 47.9991 30.0018 47.9991C38.0015 47.9991 43.0003 44.0007 45.0018 36.0005C42.0023 39.9994 38.5017 41.4989 34.5023 40.4991C32.2195 39.93 30.5896 38.2744 28.7803 36.4397C25.8412 33.4552 22.4381 30 15.0018 30Z" fill="#38B2AC"/>
</g>
<defs>
<clipPath id="clip0_3253_2984">
<rect width="60" height="60" fill="white"/>
</clipPath>
</defs>
</svg>
