<svg width="60" height="60" viewBox="0 0 60 60" fill="none" xmlns="http://www.w3.org/2000/svg">
<path d="M12.7664 6.50854C9.40214 6.50854 6.91355 9.45417 7.02464 12.6487C7.13151 15.7171 6.99276 19.6921 5.99198 22.9331C4.98886 26.1843 3.29198 28.2389 0.520264 28.5032V31.4971C3.29198 31.761 4.98886 33.816 5.99198 37.0673C6.99276 40.3082 7.13105 44.2832 7.02464 47.3517C6.91308 50.5462 9.40214 53.4914 12.7664 53.4914H47.2382C50.6025 53.4914 53.091 50.5457 52.9799 47.3517C52.8731 44.2832 53.0118 40.3082 54.0121 37.0673C55.0153 33.8165 56.7079 31.7615 59.4796 31.4971V28.5032C56.7079 28.2393 55.0157 26.1843 54.0121 22.9331C53.0118 19.6921 52.8731 15.7171 52.9799 12.6487C53.091 9.45417 50.6025 6.50854 47.2378 6.50854H12.7664ZM40.0073 35.4239C40.0073 39.8226 36.7251 42.4893 31.2787 42.4893H21.2371C21.1761 42.4893 21.1176 42.4651 21.0744 42.4219C21.0312 42.3788 21.007 42.3202 21.007 42.2592V17.7314C21.0069 17.7011 21.0128 17.6711 21.0244 17.6431C21.0359 17.6152 21.0529 17.5897 21.0742 17.5683C21.0956 17.5469 21.121 17.5299 21.149 17.5183C21.1769 17.5067 21.2069 17.5007 21.2371 17.5007H31.2257C35.7674 17.5007 38.7478 19.9598 38.7478 23.7351C38.7478 26.385 36.7429 28.7568 34.1882 29.1726V29.3114C37.6654 29.6924 40.0073 32.0995 40.0073 35.4239ZM30.2676 20.67H24.981V28.1334H29.4342C32.8757 28.1334 34.7737 26.7482 34.7737 24.2718C34.7737 21.9515 33.142 20.67 30.2676 20.67ZM24.981 31.0949V39.3206H30.4631C34.0467 39.3206 35.9451 37.8834 35.9451 35.1815C35.9451 32.4801 33.9937 31.0949 30.2325 31.0949H24.981Z" fill="#7952B3"/>
</svg>
